<svg width="16" height="16" viewBox="0 0 16 16" fill="none" xmlns="http://www.w3.org/2000/svg">
<path d="M13 2.66671H11V1.66671C11 1.48263 10.8507 1.33337 10.6667 1.33337C10.4826 1.33337 10.3333 1.48263 10.3333 1.66671V2.66671H5.66667V1.66671C5.66667 1.48263 5.51742 1.33337 5.33333 1.33337C5.14925 1.33337 5 1.48263 5 1.66671V2.66671H2.99967C2.07959 2.66768 1.33398 3.41329 1.33301 4.33337V13C1.33398 13.9201 2.07959 14.6657 2.99967 14.6667H13C13.9201 14.6659 14.6658 13.9202 14.6667 13V4.33337C14.6658 3.41325 13.9201 2.66756 13 2.66671ZM14 13C13.9994 13.5521 13.552 13.9994 13 14H2.99967C2.44763 13.9994 2.00028 13.5521 1.99967 13V7.33337H14V13ZM14 6.66671H1.99967V4.33337C2.00028 3.78133 2.44763 3.33398 2.99967 3.33337H5V4.33337C5 4.33321 5 4.3335 5 4.33337C5.00012 4.51733 5.14933 4.66683 5.33333 4.66671C5.33317 4.66671 5.33346 4.66671 5.33333 4.66671C5.51729 4.66659 5.66679 4.51737 5.66667 4.33337V3.33337H10.3333V4.33337C10.3333 4.33321 10.3333 4.3335 10.3333 4.33337C10.3335 4.51733 10.4827 4.66683 10.6667 4.66671C10.6665 4.66671 10.6668 4.66671 10.6667 4.66671C10.8506 4.66659 11.0001 4.51737 11 4.33337V3.33337H13C13.552 3.33398 13.9994 3.78133 14 4.33337V6.66671Z" fill="#818181"/>
</svg>
