<svg width="12" height="12" viewBox="0 0 12 12" fill="none" xmlns="http://www.w3.org/2000/svg">
<path opacity="0.4" d="M11 6V8.5C11 10 10 11 8.5 11H3.5C2 11 1 10 1 8.5V6C1 4.64 1.82 3.69 3.095 3.53C3.225 3.51 3.36 3.5 3.5 3.5H8.5C8.63 3.5 8.755 3.50499 8.875 3.52499C10.165 3.67499 11 4.63 11 6Z" fill="#FF2F31"/>
<path d="M8.8757 3.525C8.7557 3.505 8.6307 3.50001 8.5007 3.50001H3.5007C3.3607 3.50001 3.2257 3.51 3.0957 3.53C3.1657 3.39 3.2657 3.26 3.3857 3.14L5.0107 1.51C5.6957 0.83 6.8057 0.83 7.4907 1.51L8.3657 2.39501C8.6857 2.71001 8.8557 3.11 8.8757 3.525Z" fill="#FF2F31"/>
<path d="M11 6.25H9.5C8.95 6.25 8.5 6.7 8.5 7.25C8.5 7.8 8.95 8.25 9.5 8.25H11" fill="#FF2F31"/>
</svg>
