<svg width="16" height="16" viewBox="0 0 16 16" fill="none" xmlns="http://www.w3.org/2000/svg">
<path d="M13.9405 7.41289V4.48622C13.9405 3.93956 13.5272 3.31956 13.0139 3.11289L9.30055 1.59289C8.46721 1.25289 7.52721 1.25289 6.69388 1.59289L2.98055 3.11289C2.47388 3.31956 2.06055 3.93956 2.06055 4.48622V7.41289C2.06055 10.6729 4.42721 13.7262 7.66055 14.6196C7.88055 14.6796 8.12055 14.6796 8.34055 14.6196C11.5739 13.7262 13.9405 10.6729 13.9405 7.41289ZM8.50055 8.57956V10.3329C8.50055 10.6062 8.27388 10.8329 8.00055 10.8329C7.72721 10.8329 7.50055 10.6062 7.50055 10.3329V8.57956C6.82721 8.36622 6.33388 7.73956 6.33388 6.99956C6.33388 6.07956 7.08055 5.33289 8.00055 5.33289C8.92055 5.33289 9.66721 6.07956 9.66721 6.99956C9.66721 7.74622 9.17388 8.36622 8.50055 8.57956Z" fill="#FF2F31"/>
</svg>
